<svg width="5" height="16" viewBox="0 0 5 16" fill="none" xmlns="http://www.w3.org/2000/svg">
<path fill-rule="evenodd" clip-rule="evenodd" d="M4.18652 2C4.18652 0.9 3.29084 0 2.19611 0C1.10138 0 0.20569 0.9 0.20569 2C0.20569 3.1 1.10138 4 2.19611 4C3.29084 4 4.18652 3.1 4.18652 2ZM4.18652 14C4.18652 12.9 3.29084 12 2.19611 12C1.10138 12 0.20569 12.9 0.20569 14C0.20569 15.1 1.10138 16 2.19611 16C3.29084 16 4.18652 15.1 4.18652 14ZM4.18652 8C4.18652 6.9 3.29084 6 2.19611 6C1.10138 6 0.20569 6.9 0.20569 8C0.20569 9.1 1.10138 10 2.19611 10C3.29084 10 4.18652 9.1 4.18652 8Z" fill="#1EC491"/>
</svg>
