<svg width="20" height="21" viewBox="0 0 20 21" fill="none" xmlns="http://www.w3.org/2000/svg">
<path d="M5.57979 2.48625L4.14979 1.05625C1.74978 2.88625 0.169785 5.70625 0.0297852 8.90625H2.02979C2.17979 6.25625 3.53979 3.93625 5.57979 2.48625ZM17.9698 8.90625H19.9698C19.8198 5.70625 18.2398 2.88625 15.8498 1.05625L14.4298 2.48625C16.4498 3.93625 17.8198 6.25625 17.9698 8.90625ZM15.9998 9.40625C15.9998 6.33625 14.3598 3.76625 11.4998 3.08625V2.40625C11.4998 1.57625 10.8298 0.90625 9.99979 0.90625C9.16979 0.90625 8.49979 1.57625 8.49979 2.40625V3.08625C5.62979 3.76625 3.99979 6.32625 3.99979 9.40625V14.4062L1.99979 16.4062V17.4062H17.9998V16.4062L15.9998 14.4062V9.40625ZM9.99979 20.4062C10.1398 20.4062 10.2698 20.3962 10.3998 20.3662C11.0498 20.2262 11.5798 19.7863 11.8398 19.1863C11.9398 18.9463 11.9898 18.6863 11.9898 18.4062H7.98979C7.99979 19.5063 8.88979 20.4062 9.99979 20.4062Z" fill="white"/>
</svg>
