<svg width="18" height="15" viewBox="0 0 18 15" fill="none" xmlns="http://www.w3.org/2000/svg">
<path d="M0.467197 2.53382V2.534H2.41432C2.53937 1.6408 3.3799 0.95 4.38889 0.95C5.39789 0.95 6.23842 1.6408 6.36347 2.534H16.8215H16.8218V2.584C16.9244 2.58268 17.0188 2.66701 17.0188 2.76C17.0188 2.85299 16.9244 2.93741 16.8218 2.936L0.467197 2.53382ZM0.467197 2.53382L0.462964 2.53418C0.338165 2.54478 0.228525 2.65711 0.241411 2.78165C0.247911 2.84446 0.285003 2.89815 0.332799 2.93403C0.380213 2.96963 0.442043 2.99079 0.505615 2.986H0.507435H0.511248H0.515061H0.518875H0.522689H0.526502H0.530316H0.53413H0.537944H0.541758H0.545572H0.549387H0.553201H0.557015H0.56083H0.564645H0.568459H0.572274H0.576089H0.579904H0.583719H0.587534H0.591349H0.595165H0.59898H0.602796H0.606611H0.610427H0.614243H0.618059H0.621875H0.625691H0.629507H0.633323H0.637139H0.640956H0.644772H0.648589H0.652405H0.656222H0.660039H0.663855H0.667672H0.671489H0.675306H0.679124H0.682941H0.686758H0.690575H0.694393H0.69821H0.702028H0.705846H0.709663H0.713481H0.717299H0.721117H0.724935H0.728753H0.732571H0.73639H0.740208H0.744026H0.747845H0.751663H0.755482H0.759301H0.763119H0.766938H0.770757H0.774576H0.778395H0.782214H0.786033H0.789852H0.793671H0.797491H0.80131H0.80513H0.808949H0.812769H0.816588H0.820408H0.824228H0.828047H0.831867H0.835687H0.839507H0.843327H0.847147H0.850967H0.854787H0.858608H0.862428H0.866248H0.870069H0.873889H0.87771H0.88153H0.885351H0.889172H0.892992H0.896813H0.900634H0.904455H0.908276H0.912097H0.915918H0.919739H0.92356H0.927381H0.931202H0.935023H0.938845H0.942666H0.946487H0.950309H0.95413H0.957952H0.961773H0.965595H0.969417H0.973238H0.97706H0.980882H0.984703H0.988525H0.992347H0.996169H0.999991H1.00381H1.00764H1.01146H1.01528H1.0191H1.02292H1.02675H1.03057H1.03439H1.03821H1.04203H1.04586H1.04968H1.0535H1.05732H1.06115H1.06497H1.06879H1.07261H1.07644H1.08026H1.08408H1.08791H1.09173H1.09555H1.09937H1.1032H1.10702H1.11084H1.11466H1.11849H1.12231H1.12613H1.12996H1.13378H1.1376H1.14143H1.14525H1.14907H1.15289H1.15672H1.16054H1.16436H1.16819H1.17201H1.17583H1.17966H1.18348H1.1873H1.19113H1.19495H1.19877H1.2026H1.20642H1.21024H1.21407H1.21789H1.22171H1.22554H1.22936H1.23318H1.23701H1.24083H1.24465H1.24848H1.2523H1.25612H1.25995H1.26377H1.26759H1.27142H1.27524H1.27906H1.28289H1.28671H1.29053H1.29436H1.29818H1.30201H1.30583H1.30965H1.31348H1.3173H1.32112H1.32495H1.32877H1.33259H1.33642H1.34024H1.34406H1.34789H1.35171H1.35553H1.35936H1.36318H1.367H1.37083H1.37465H1.37847H1.3823H1.38612H1.38994H1.39377H1.39759H1.40141H1.40524H1.40906H1.41288H1.41671H1.42053H1.42435H1.42818H1.432H1.43582H1.43965H1.44347H1.44729H1.45112H1.45494H1.45876H1.46259H1.46641H1.47023H1.47406H1.47788H1.4817H1.48552H1.48935H1.49317H1.49699H1.50082H1.50464H1.50846H1.51228H1.51611H1.51993H1.52375H1.52758H1.5314H1.53522H1.53904H1.54287H1.54669H1.55051H1.55433H1.55816H1.56198H1.5658H1.56962H1.57345H1.57727H1.58109H1.58491H1.58874H1.59256H1.59638H1.6002H1.60402H1.60785H1.61167H1.61549H1.61931H1.62313H1.62696H1.63078H1.6346H1.63842H1.64224H1.64606H1.64989H1.65371H1.65753H1.66135H1.66517H1.66899H1.67282H1.67664H1.68046H1.68428H1.6881H1.69192H1.69574H1.69956H1.70339H1.70721H1.71103H1.71485H1.71867H1.72249H1.72631H1.73013H1.73395H1.73777H1.74159H1.74541H1.74923H1.75305H1.75687H1.76069H1.76451H1.76833H1.77215H1.77597H1.77979H1.78361H1.78743H1.79125H1.79507H1.79889H1.80271H1.80653H1.81035H1.81417H1.81799H1.82181H1.82563H1.82945H1.83327H1.83709H1.84091H1.84473H1.84854H1.85236H1.85618H1.86H1.86382H1.86764H1.87146H1.87527H1.87909H1.88291H1.88673H1.89055H1.89437H1.89818H1.902H1.90582H1.90964H1.91345H1.91727H1.92109H1.92491H1.92872H1.93254H1.93636H1.94018H1.94399H1.94781H1.95163H1.95544H1.95926H1.96308H1.96689H1.97071H1.97453H1.97834H1.98216H1.98598H1.98979H1.99361H1.99742H2.00124H2.00506H2.00887H2.01269H2.0165H2.02032H2.02413H2.02795H2.03176H2.03558H2.03939H2.04321H2.04702H2.05084H2.05465H2.05847H2.06228H2.0661H2.06991H2.07372H2.07754H2.08135H2.08517H2.08898H2.09279H2.09661H2.10042H2.10423H2.10805H2.11186H2.11567H2.11949H2.1233H2.12711H2.13093H2.13474H2.13855H2.14236H2.14618H2.14999H2.1538H2.15761H2.16142H2.16524H2.16905H2.17286H2.17667H2.18048H2.18429H2.18811H2.19192H2.19573H2.19954H2.20335H2.20716H2.21097H2.21478H2.21859H2.2224H2.22621H2.23002H2.23383H2.23764H2.24145H2.24526H2.24907H2.25288H2.25669H2.2605H2.26431H2.26811H2.27192H2.27573H2.27954H2.28335H2.28716H2.29097H2.29477H2.29858H2.30239H2.3062H2.31H2.31381H2.31762H2.32143H2.32523H2.32904H2.33285H2.33665H2.34046H2.34427H2.34807H2.35188H2.35569H2.35949H2.3633H2.3671H2.37091H2.37471H2.37852H2.38232H2.38613H2.38993H2.39374H2.39754H2.40135H2.40515H2.40896H2.41276H2.41417C2.53659 3.88179 3.37808 4.57 4.38889 4.57C5.3997 4.57 6.24119 3.88179 6.36362 2.986H16.8214L0.467197 2.53382ZM0.467197 12.0378V12.038H2.41432C2.53937 11.1448 3.3799 10.454 4.38889 10.454C5.39788 10.454 6.23842 11.1448 6.36347 12.038H16.8215H16.8218V12.088C16.9244 12.0867 17.0188 12.171 17.0188 12.264C17.0188 12.357 16.9244 12.4418 16.8218 12.44L0.467197 12.0378ZM0.467197 12.0378L0.462973 12.0382C0.338158 12.0488 0.228526 12.1611 0.241411 12.2856C0.247911 12.3485 0.285003 12.4022 0.332799 12.438C0.380213 12.4736 0.442045 12.4948 0.505618 12.49H0.507435H0.511248H0.515061H0.518875H0.522689H0.526502H0.530316H0.53413H0.537944H0.541758H0.545572H0.549387H0.553201H0.557015H0.56083H0.564645H0.568459H0.572274H0.576089H0.579904H0.583719H0.587534H0.59135H0.595165H0.59898H0.602796H0.606611H0.610427H0.614243H0.618059H0.621875H0.625691H0.629507H0.633323H0.637139H0.640956H0.644772H0.648589H0.652405H0.656222H0.660039H0.663855H0.667672H0.671489H0.675306H0.679124H0.682941H0.686758H0.690576H0.694393H0.698211H0.702028H0.705846H0.709664H0.713481H0.717299H0.721117H0.724935H0.728753H0.732572H0.73639H0.740208H0.744026H0.747845H0.751663H0.755482H0.759301H0.763119H0.766938H0.770757H0.774576H0.778395H0.782214H0.786033H0.789852H0.793671H0.797491H0.80131H0.80513H0.808949H0.812769H0.816588H0.820408H0.824228H0.828047H0.831867H0.835687H0.839507H0.843327H0.847147H0.850967H0.854788H0.858608H0.862428H0.866248H0.870069H0.873889H0.87771H0.88153H0.885351H0.889172H0.892992H0.896813H0.900634H0.904455H0.908276H0.912097H0.915918H0.919739H0.92356H0.927381H0.931202H0.935023H0.938845H0.942666H0.946487H0.950309H0.95413H0.957952H0.961773H0.965595H0.969417H0.973238H0.97706H0.980882H0.984703H0.988525H0.992347H0.996169H0.999991H1.00381H1.00764H1.01146H1.01528H1.0191H1.02292H1.02675H1.03057H1.03439H1.03821H1.04203H1.04586H1.04968H1.0535H1.05732H1.06115H1.06497H1.06879H1.07261H1.07644H1.08026H1.08408H1.08791H1.09173H1.09555H1.09937H1.1032H1.10702H1.11084H1.11466H1.11849H1.12231H1.12613H1.12996H1.13378H1.1376H1.14143H1.14525H1.14907H1.15289H1.15672H1.16054H1.16436H1.16819H1.17201H1.17583H1.17966H1.18348H1.1873H1.19113H1.19495H1.19877H1.2026H1.20642H1.21024H1.21407H1.21789H1.22171H1.22554H1.22936H1.23318H1.23701H1.24083H1.24465H1.24848H1.2523H1.25612H1.25995H1.26377H1.26759H1.27142H1.27524H1.27906H1.28289H1.28671H1.29053H1.29436H1.29818H1.30201H1.30583H1.30965H1.31348H1.3173H1.32112H1.32495H1.32877H1.33259H1.33642H1.34024H1.34406H1.34789H1.35171H1.35553H1.35936H1.36318H1.367H1.37083H1.37465H1.37847H1.3823H1.38612H1.38994H1.39377H1.39759H1.40141H1.40524H1.40906H1.41288H1.41671H1.42053H1.42435H1.42818H1.432H1.43582H1.43965H1.44347H1.44729H1.45112H1.45494H1.45876H1.46259H1.46641H1.47023H1.47406H1.47788H1.4817H1.48552H1.48935H1.49317H1.49699H1.50082H1.50464H1.50846H1.51228H1.51611H1.51993H1.52375H1.52758H1.5314H1.53522H1.53904H1.54287H1.54669H1.55051H1.55433H1.55816H1.56198H1.5658H1.56962H1.57345H1.57727H1.58109H1.58491H1.58874H1.59256H1.59638H1.6002H1.60402H1.60785H1.61167H1.61549H1.61931H1.62313H1.62696H1.63078H1.6346H1.63842H1.64224H1.64606H1.64989H1.65371H1.65753H1.66135H1.66517H1.66899H1.67282H1.67664H1.68046H1.68428H1.6881H1.69192H1.69574H1.69956H1.70338H1.70721H1.71103H1.71485H1.71867H1.72249H1.72631H1.73013H1.73395H1.73777H1.74159H1.74541H1.74923H1.75305H1.75687H1.76069H1.76451H1.76833H1.77215H1.77597H1.77979H1.78361H1.78743H1.79125H1.79507H1.79889H1.80271H1.80653H1.81035H1.81417H1.81799H1.82181H1.82563H1.82945H1.83327H1.83709H1.84091H1.84472H1.84854H1.85236H1.85618H1.86H1.86382H1.86764H1.87146H1.87527H1.87909H1.88291H1.88673H1.89055H1.89436H1.89818H1.902H1.90582H1.90964H1.91345H1.91727H1.92109H1.92491H1.92872H1.93254H1.93636H1.94018H1.94399H1.94781H1.95163H1.95544H1.95926H1.96308H1.96689H1.97071H1.97453H1.97834H1.98216H1.98598H1.98979H1.99361H1.99742H2.00124H2.00506H2.00887H2.01269H2.0165H2.02032H2.02413H2.02795H2.03176H2.03558H2.03939H2.04321H2.04702H2.05084H2.05465H2.05847H2.06228H2.0661H2.06991H2.07372H2.07754H2.08135H2.08517H2.08898H2.09279H2.09661H2.10042H2.10423H2.10805H2.11186H2.11567H2.11949H2.1233H2.12711H2.13093H2.13474H2.13855H2.14236H2.14618H2.14999H2.1538H2.15761H2.16142H2.16524H2.16905H2.17286H2.17667H2.18048H2.18429H2.1881H2.19192H2.19573H2.19954H2.20335H2.20716H2.21097H2.21478H2.21859H2.2224H2.22621H2.23002H2.23383H2.23764H2.24145H2.24526H2.24907H2.25288H2.25669H2.2605H2.26431H2.26811H2.27192H2.27573H2.27954H2.28335H2.28716H2.29097H2.29477H2.29858H2.30239H2.3062H2.31H2.31381H2.31762H2.32143H2.32523H2.32904H2.33285H2.33665H2.34046H2.34427H2.34807H2.35188H2.35569H2.35949H2.3633H2.3671H2.37091H2.37471H2.37852H2.38232H2.38613H2.38993H2.39374H2.39754H2.40135H2.40515H2.40896H2.41276H2.41417C2.53659 13.3858 3.37809 14.074 4.38889 14.074C5.3997 14.074 6.24119 13.3858 6.36362 12.49H16.8214L0.467197 12.0378ZM10.9619 7.286C11.087 6.3928 11.9275 5.702 12.9365 5.702C13.9455 5.702 14.786 6.39284 14.9111 7.28604H14.9126H14.9164H14.9202H14.924H14.9278H14.9316H14.9355H14.9393H14.9431H14.9469H14.9507H14.9545H14.9583H14.9621H14.9659H14.9697H14.9735H14.9773H14.9811H14.9849H14.9887H14.9925H14.9963H15.0002H15.004H15.0078H15.0116H15.0154H15.0192H15.023H15.0268H15.0306H15.0344H15.0382H15.042H15.0458H15.0497H15.0535H15.0573H15.0611H15.0649H15.0687H15.0725H15.0763H15.0801H15.0839H15.0877H15.0916H15.0954H15.0992H15.103H15.1068H15.1106H15.1144H15.1182H15.122H15.1258H15.1297H15.1335H15.1373H15.1411H15.1449H15.1487H15.1525H15.1563H15.1602H15.164H15.1678H15.1716H15.1754H15.1792H15.183H15.1868H15.1906H15.1945H15.1983H15.2021H15.2059H15.2097H15.2135H15.2173H15.2212H15.225H15.2288H15.2326H15.2364H15.2402H15.244H15.2478H15.2517H15.2555H15.2593H15.2631H15.2669H15.2707H15.2745H15.2784H15.2822H15.286H15.2898H15.2936H15.2974H15.3013H15.3051H15.3089H15.3127H15.3165H15.3203H15.3241H15.328H15.3318H15.3356H15.3394H15.3432H15.347H15.3509H15.3547H15.3585H15.3623H15.3661H15.3699H15.3738H15.3776H15.3814H15.3852H15.389H15.3928H15.3967H15.4005H15.4043H15.4081H15.4119H15.4158H15.4196H15.4234H15.4272H15.431H15.4348H15.4387H15.4425H15.4463H15.4501H15.4539H15.4577H15.4616H15.4654H15.4692H15.473H15.4768H15.4807H15.4845H15.4883H15.4921H15.4959H15.4998H15.5036H15.5074H15.5112H15.515H15.5189H15.5227H15.5265H15.5303H15.5341H15.538H15.5418H15.5456H15.5494H15.5532H15.5571H15.5609H15.5647H15.5685H15.5723H15.5762H15.58H15.5838H15.5876H15.5914H15.5953H15.5991H15.6029H15.6067H15.6105H15.6144H15.6182H15.622H15.6258H15.6296H15.6335H15.6373H15.6411H15.6449H15.6488H15.6526H15.6564H15.6602H15.664H15.6679H15.6717H15.6755H15.6793H15.6831H15.687H15.6908H15.6946H15.6984H15.7023H15.7061H15.7099H15.7137H15.7175H15.7214H15.7252H15.729H15.7328H15.7367H15.7405H15.7443H15.7481H15.7519H15.7558H15.7596H15.7634H15.7672H15.7711H15.7749H15.7787H15.7825H15.7863H15.7902H15.794H15.7978H15.8016H15.8055H15.8093H15.8131H15.8169H15.8207H15.8246H15.8284H15.8322H15.836H15.8399H15.8437H15.8475H15.8513H15.8552H15.859H15.8628H15.8666H15.8704H15.8743H15.8781H15.8819H15.8857H15.8896H15.8934H15.8972H15.901H15.9049H15.9087H15.9125H15.9163H15.9201H15.924H15.9278H15.9316H15.9354H15.9393H15.9431H15.9469H15.9507H15.9546H15.9584H15.9622H15.966H15.9699H15.9737H15.9775H15.9813H15.9851H15.989H15.9928H15.9966H16.0004H16.0043H16.0081H16.0119H16.0157H16.0196H16.0234H16.0272H16.031H16.0349H16.0387H16.0425H16.0463H16.0501H16.054H16.0578H16.0616H16.0654H16.0693H16.0731H16.0769H16.0807H16.0846H16.0884H16.0922H16.096H16.0999H16.1037H16.1075H16.1113H16.1151H16.119H16.1228H16.1266H16.1304H16.1343H16.1381H16.1419H16.1457H16.1496H16.1534H16.1572H16.161H16.1648H16.1687H16.1725H16.1763H16.1801H16.184H16.1878H16.1916H16.1954H16.1993H16.2031H16.2069H16.2107H16.2145H16.2184H16.2222H16.226H16.2298H16.2337H16.2375H16.2413H16.2451H16.249H16.2528H16.2566H16.2604H16.2642H16.2681H16.2719H16.2757H16.2795H16.2834H16.2872H16.291H16.2948H16.2986H16.3025H16.3063H16.3101H16.3139H16.3178H16.3216H16.3254H16.3292H16.333H16.3369H16.3407H16.3445H16.3483H16.3521H16.356H16.3598H16.3636H16.3674H16.3713H16.3751H16.3789H16.3827H16.3865H16.3904H16.3942H16.398H16.4018H16.4056H16.4095H16.4133H16.4171H16.4209H16.4248H16.4286H16.4324H16.4362H16.44H16.4439H16.4477H16.4515H16.4553H16.4591H16.463H16.4668H16.4706H16.4744H16.4782H16.4821H16.4859H16.4897H16.4935H16.4973H16.5012H16.505H16.5088H16.5126H16.5164H16.5203H16.5241H16.5279H16.5317H16.5355H16.5394H16.5432H16.547H16.5508H16.5546H16.5584H16.5623H16.5661H16.5699H16.5737H16.5775H16.5814H16.5852H16.589H16.5928H16.5966H16.6005H16.6043H16.6081H16.6119H16.6157H16.6195H16.6234H16.6272H16.631H16.6348H16.6386H16.6424H16.6463H16.6501H16.6539H16.6577H16.6615H16.6653H16.6692H16.673H16.6768H16.6806H16.6844H16.6882H16.6921H16.6959H16.6997H16.7035H16.7073H16.7111H16.715H16.7188H16.7226H16.7264H16.7302H16.734H16.7379H16.7417H16.7455H16.7493H16.7531H16.7569H16.7607H16.7646H16.7684H16.7722H16.776H16.7798H16.7836H16.7874H16.7913H16.7951H16.7989H16.8027H16.8065H16.8103H16.8141H16.818H16.8215H16.8218V7.33604C16.9244 7.33472 17.0188 7.41904 17.0188 7.51204C17.0188 7.60502 16.9244 7.6898 16.8218 7.68804L10.9619 7.286ZM10.9619 7.286H0.506937C0.491833 7.28414 0.476606 7.28424 0.461516 7.2863C0.337311 7.29763 0.228575 7.40959 0.241411 7.53363C0.247911 7.59645 0.285002 7.65014 0.332797 7.68603C0.380209 7.72162 0.442038 7.74279 0.505612 7.738H10.9618C11.0842 8.63377 11.9257 9.322 12.9365 9.322C13.9455 9.322 14.7863 8.63645 14.9111 7.74301L14.9536 7.74275L15.176 7.74189C15.3597 7.7413 15.6037 7.74067 15.8476 7.7401L16.5176 7.73864L16.7382 7.7382L16.8 7.73808L16.8163 7.73805L16.8204 7.73804L16.8214 7.73804L10.9619 7.286ZM4.38889 1.402C5.22665 1.402 5.893 2.01244 5.893 2.76C5.893 3.50756 5.22665 4.118 4.38889 4.118C3.55114 4.118 2.88478 3.50756 2.88478 2.76C2.88478 2.01244 3.55114 1.402 4.38889 1.402ZM14.8701 7.74338L14.8699 7.74339L14.8701 7.74338ZM12.9365 6.154C13.7743 6.154 14.4406 6.76443 14.4406 7.512C14.4406 8.25955 13.7743 8.87 12.9365 8.87C12.0987 8.87 11.4324 8.25955 11.4324 7.512C11.4324 6.76443 12.0987 6.154 12.9365 6.154ZM4.38889 10.906C5.22665 10.906 5.893 11.5164 5.893 12.264C5.893 13.0116 5.22665 13.622 4.38889 13.622C3.55113 13.622 2.88478 13.0116 2.88478 12.264C2.88478 11.5164 3.55113 10.906 4.38889 10.906Z" fill="black" stroke="black" stroke-width="0.1"/>
</svg>
